<svg width="37" height="37" viewBox="0 0 37 37" fill="none" xmlns="http://www.w3.org/2000/svg">
<path fill-rule="evenodd" clip-rule="evenodd" d="M18.5 35.2462C27.6127 35.2462 35 27.8038 35 18.6231C35 9.4424 27.6127 2 18.5 2C9.3873 2 2 9.4424 2 18.6231C2 27.8038 9.3873 35.2462 18.5 35.2462Z" stroke="#3B3B3B" stroke-width="3" stroke-linecap="round" stroke-linejoin="round"/>
<path d="M18.4999 17.3914C20.6537 17.3914 22.3999 15.5997 22.3999 13.3895C22.3999 11.1794 20.6537 9.3877 18.4999 9.3877C16.346 9.3877 14.5999 11.1794 14.5999 13.3895C14.5999 15.5997 16.346 17.3914 18.4999 17.3914Z" stroke="#3B3B3B" stroke-width="3" stroke-linejoin="round"/>
<path d="M6.7998 30.3211C7.08751 25.8515 10.717 22.3174 15.1521 22.3174H21.8486C26.2779 22.3174 29.9037 25.8421 30.1998 30.3033" stroke="#3B3B3B" stroke-width="3" stroke-linecap="round" stroke-linejoin="round"/>
</svg>
